# xmcd
#
# Track frame offsets:
# 150
# 11427
# 23245
# 35235
# 46577
# 58372
# 71517
# 82075
# 90022
# 102800
# 112890
# 122770
# 134270
# 144620
# 157235
# 168857
# 178780
# 189147
# 201747
# 213342
#
# Disc length: 2964 seconds
#
#
# Revision: 3
# Processed by: cddbd v1.5.1PL2 Copyright (c) Steve Scherf et al.
# Submitted via: FreeRIP 2.945 
#
DISCID=160b9214
DTITLE=Wanda Jackson - Vintage Collections
DYEAR=1996
DGENRE=Country
TTITLE0=I Gotta Know
TTITLE1=Silver Threads and Golden Needles
TTITLE2=Hot Dog That Made Him Mad
TTITLE3=Riot In Cell Block No 9
TTITLE4=Right Or Wrong
TTITLE5=It Doesn't Matter Anymore
TTITLE6=Kickin' Our Hearts Around
TTITLE7=Rock Your Baby
TTITLE8=The Window Up Above
TTITLE9=Fujiyama Mama
TTITLE10=Let's Have A Party
TTITLE11=Why I'm Walkin'
TTITLE12=Cool Love
TTITLE13=This Should Go On Forever
TTITLE14=In The Middle Of A Heartache
TTITLE15=Mean Mean Man
TTITLE16=Making Believe
TTITLE17=Kansas City
TTITLE18=I May Never Get To Heaven
TTITLE19=Hard Headed Woman
EXTD=7243-8-36185-2-1
EXTT0=
EXTT1=
EXTT2=
EXTT3=
EXTT4=
EXTT5=
EXTT6=
EXTT7=
EXTT8=
EXTT9=
EXTT10=
EXTT11=
EXTT12=
EXTT13=
EXTT14=
EXTT15=
EXTT16=
EXTT17=
EXTT18=
EXTT19=
PLAYORDER=
